<?xml version="1.0" encoding="UTF-8" standalone="no"?>
<!-- Created with Inkscape (http://www.inkscape.org/) -->

<svg
   xmlns:dc="http://purl.org/dc/elements/1.1/"
   xmlns:cc="http://creativecommons.org/ns#"
   xmlns:rdf="http://www.w3.org/1999/02/22-rdf-syntax-ns#"
   xmlns:svg="http://www.w3.org/2000/svg"
   xmlns="http://www.w3.org/2000/svg"
   xmlns:sodipodi="http://sodipodi.sourceforge.net/DTD/sodipodi-0.dtd"
   xmlns:inkscape="http://www.inkscape.org/namespaces/inkscape"
   width="64mm"
   height="64mm"
   viewBox="0 0 64 64"
   version="1.1"
   id="svg8"
   inkscape:version="0.92.5 (2060ec1f9f, 2020-04-08)"
   sodipodi:docname="facebook.svg">
  <defs
     id="defs2">
    <inkscape:path-effect
       effect="bspline"
       id="path-effect828"
       is_visible="true"
       weight="33.333333"
       steps="2"
       helper_size="0"
       apply_no_weight="true"
       apply_with_weight="true"
       only_selected="false" />
  </defs>
  <sodipodi:namedview
     id="base"
     pagecolor="#ffffff"
     bordercolor="#666666"
     borderopacity="1.0"
     inkscape:pageopacity="0.0"
     inkscape:pageshadow="2"
     inkscape:zoom="1.9717392"
     inkscape:cx="184.37468"
     inkscape:cy="115.39802"
     inkscape:document-units="mm"
     inkscape:current-layer="layer1"
     showgrid="false"
     inkscape:window-width="1920"
     inkscape:window-height="1013"
     inkscape:window-x="1920"
     inkscape:window-y="30"
     inkscape:window-maximized="1" />
  <metadata
     id="metadata5">
    <rdf:RDF>
      <cc:Work
         rdf:about="">
        <dc:format>image/svg+xml</dc:format>
        <dc:type
           rdf:resource="http://purl.org/dc/dcmitype/StillImage" />
        <dc:title></dc:title>
      </cc:Work>
    </rdf:RDF>
  </metadata>
  <g
     inkscape:label="Layer 1"
     inkscape:groupmode="layer"
     id="layer1"
     transform="translate(0,-233)">
    <path
       style="fill:#000000;stroke:none;stroke-width:0.0543212px;stroke-linecap:butt;stroke-linejoin:miter;stroke-opacity:1"
       d="m 44.765397,238.37297 c -2.917398,0 -5.834839,-2e-5 -8.020548,0.005 -2.185709,0.005 -3.639876,0.0138 -4.833315,0.20127 -1.193436,0.18747 -2.126002,0.55315 -3.06904,1.13915 -0.94304,0.586 -1.895659,1.3917 -2.599886,2.42514 -0.704224,1.03344 -1.159808,2.29438 -1.392192,3.25408 -0.232385,0.9597 -0.24157,1.61826 -0.246142,9.27301 -3.99e-4,0.63348 -3.99e-4,1.89883 -6.14e-4,2.62418 h -6.208321 v 7.99295 h 6.206303 c -0.0014,7.68643 -0.0018,16.59415 -0.0018,26.33964 l 11.139135,-0.0549 c 0,-10.48388 0,-19.19206 0,-26.28478 h 7.33379 l 2.522009,-7.99296 h -9.85584 c 0,-2.81195 0,-5.03964 0,-5.41387 0,-0.50094 4.1e-5,-1.36245 0.215269,-1.99758 0.215228,-0.63512 0.644897,-1.09074 1.046638,-1.37288 0.401744,-0.28215 0.738026,-0.35691 1.017884,-0.39075 0.279863,-0.0338 0.552066,-0.0338 1.683218,-0.0338 1.131152,0 3.097269,-1e-5 5.063542,0 z"
       id="path826"
       inkscape:connector-curvature="0" />
  </g>
</svg>
